<svg width="21" height="20" viewBox="0 0 21 20" fill="none" xmlns="http://www.w3.org/2000/svg">
<g clip-path="url(#clip0_6490_231)">
<path d="M10.75 1.80078C13.4219 1.80078 13.7383 1.8125 14.7891 1.85937C15.7656 1.90234 16.293 2.06641 16.6445 2.20313C17.1094 2.38281 17.4453 2.60156 17.793 2.94922C18.1445 3.30078 18.3594 3.63281 18.5391 4.09766C18.6758 4.44922 18.8398 4.98047 18.8828 5.95312C18.9297 7.00781 18.9414 7.32422 18.9414 9.99219C18.9414 12.6641 18.9297 12.9805 18.8828 14.0313C18.8398 15.0078 18.6758 15.5352 18.5391 15.8867C18.3594 16.3516 18.1406 16.6875 17.793 17.0352C17.4414 17.3867 17.1094 17.6016 16.6445 17.7813C16.293 17.918 15.7617 18.082 14.7891 18.125C13.7344 18.1719 13.418 18.1836 10.75 18.1836C8.07813 18.1836 7.76172 18.1719 6.71094 18.125C5.73438 18.082 5.20703 17.918 4.85547 17.7813C4.39063 17.6016 4.05469 17.3828 3.70703 17.0352C3.35547 16.6836 3.14063 16.3516 2.96094 15.8867C2.82422 15.5352 2.66016 15.0039 2.61719 14.0313C2.57031 12.9766 2.55859 12.6602 2.55859 9.99219C2.55859 7.32031 2.57031 7.00391 2.61719 5.95312C2.66016 4.97656 2.82422 4.44922 2.96094 4.09766C3.14063 3.63281 3.35938 3.29688 3.70703 2.94922C4.05859 2.59766 4.39063 2.38281 4.85547 2.20313C5.20703 2.06641 5.73828 1.90234 6.71094 1.85937C7.76172 1.8125 8.07813 1.80078 10.75 1.80078ZM10.75 0C8.03516 0 7.69531 0.0117187 6.62891 0.0585938C5.56641 0.105469 4.83594 0.277344 4.20313 0.523438C3.54297 0.78125 2.98438 1.12109 2.42969 1.67969C1.87109 2.23438 1.53125 2.79297 1.27344 3.44922C1.02734 4.08594 0.855469 4.8125 0.808594 5.875C0.761719 6.94531 0.75 7.28516 0.75 10C0.75 12.7148 0.761719 13.0547 0.808594 14.1211C0.855469 15.1836 1.02734 15.9141 1.27344 16.5469C1.53125 17.207 1.87109 17.7656 2.42969 18.3203C2.98438 18.875 3.54297 19.2188 4.19922 19.4727C4.83594 19.7188 5.5625 19.8906 6.625 19.9375C7.69141 19.9844 8.03125 19.9961 10.7461 19.9961C13.4609 19.9961 13.8008 19.9844 14.8672 19.9375C15.9297 19.8906 16.6602 19.7188 17.293 19.4727C17.9492 19.2188 18.5078 18.875 19.0625 18.3203C19.6172 17.7656 19.9609 17.207 20.2148 16.5508C20.4609 15.9141 20.6328 15.1875 20.6797 14.125C20.7266 13.0586 20.7383 12.7188 20.7383 10.0039C20.7383 7.28906 20.7266 6.94922 20.6797 5.88281C20.6328 4.82031 20.4609 4.08984 20.2148 3.45703C19.9688 2.79297 19.6289 2.23438 19.0703 1.67969C18.5156 1.125 17.957 0.78125 17.3008 0.527344C16.6641 0.28125 15.9375 0.109375 14.875 0.0625C13.8047 0.0117188 13.4648 0 10.75 0Z" fill="#98A2B3"/>
<path d="M10.75 4.86328C7.91406 4.86328 5.61328 7.16406 5.61328 10C5.61328 12.8359 7.91406 15.1367 10.75 15.1367C13.5859 15.1367 15.8867 12.8359 15.8867 10C15.8867 7.16406 13.5859 4.86328 10.75 4.86328ZM10.75 13.332C8.91016 13.332 7.41797 11.8398 7.41797 10C7.41797 8.16016 8.91016 6.66797 10.75 6.66797C12.5898 6.66797 14.082 8.16016 14.082 10C14.082 11.8398 12.5898 13.332 10.75 13.332Z" fill="#98A2B3"/>
<path d="M17.2891 4.66016C17.2891 5.32422 16.75 5.85938 16.0898 5.85938C15.4258 5.85938 14.8906 5.32031 14.8906 4.66016C14.8906 3.99609 15.4297 3.46094 16.0898 3.46094C16.75 3.46094 17.2891 4 17.2891 4.66016Z" fill="#98A2B3"/>
</g>
<defs>
<clipPath id="clip0_6490_231">
<rect width="20" height="20" fill="white" transform="translate(0.75)"/>
</clipPath>
</defs>
</svg>
