<svg width="20" height="20" viewBox="0 0 20 20" fill="none" xmlns="http://www.w3.org/2000/svg">
<path d="M14.6832 8.95866C14.3248 8.95866 14.0415 8.66699 14.0415 8.31699C14.0415 8.00866 13.7332 7.36699 13.2165 6.80866C12.7082 6.26699 12.1498 5.95033 11.6832 5.95033C11.3248 5.95033 11.0415 5.65866 11.0415 5.30866C11.0415 4.95866 11.3332 4.66699 11.6832 4.66699C12.5165 4.66699 13.3915 5.11699 14.1582 5.92533C14.8748 6.68366 15.3332 7.62533 15.3332 8.30866C15.3332 8.66699 15.0415 8.95866 14.6832 8.95866Z" fill="#6561FF"/>
<path d="M14.6832 8.95866C14.3248 8.95866 14.0415 8.66699 14.0415 8.31699C14.0415 8.00866 13.7332 7.36699 13.2165 6.80866C12.7082 6.26699 12.1498 5.95033 11.6832 5.95033C11.3248 5.95033 11.0415 5.65866 11.0415 5.30866C11.0415 4.95866 11.3332 4.66699 11.6832 4.66699C12.5165 4.66699 13.3915 5.11699 14.1582 5.92533C14.8748 6.68366 15.3332 7.62533 15.3332 8.30866C15.3332 8.66699 15.0415 8.95866 14.6832 8.95866Z" fill="url(#paint0_radial_6409_7651)"/>
<path d="M14.6832 8.95866C14.3248 8.95866 14.0415 8.66699 14.0415 8.31699C14.0415 8.00866 13.7332 7.36699 13.2165 6.80866C12.7082 6.26699 12.1498 5.95033 11.6832 5.95033C11.3248 5.95033 11.0415 5.65866 11.0415 5.30866C11.0415 4.95866 11.3332 4.66699 11.6832 4.66699C12.5165 4.66699 13.3915 5.11699 14.1582 5.92533C14.8748 6.68366 15.3332 7.62533 15.3332 8.30866C15.3332 8.66699 15.0415 8.95866 14.6832 8.95866Z" fill="url(#paint1_radial_6409_7651)"/>
<path d="M17.6915 8.95866C17.3332 8.95866 17.0498 8.66699 17.0498 8.31699C17.0498 5.35866 14.6415 2.95866 11.6915 2.95866C11.3332 2.95866 11.0498 2.66699 11.0498 2.31699C11.0498 1.96699 11.3332 1.66699 11.6832 1.66699C15.3498 1.66699 18.3332 4.65033 18.3332 8.31699C18.3332 8.66699 18.0415 8.95866 17.6915 8.95866Z" fill="#6561FF"/>
<path d="M17.6915 8.95866C17.3332 8.95866 17.0498 8.66699 17.0498 8.31699C17.0498 5.35866 14.6415 2.95866 11.6915 2.95866C11.3332 2.95866 11.0498 2.66699 11.0498 2.31699C11.0498 1.96699 11.3332 1.66699 11.6832 1.66699C15.3498 1.66699 18.3332 4.65033 18.3332 8.31699C18.3332 8.66699 18.0415 8.95866 17.6915 8.95866Z" fill="url(#paint2_radial_6409_7651)"/>
<path d="M17.6915 8.95866C17.3332 8.95866 17.0498 8.66699 17.0498 8.31699C17.0498 5.35866 14.6415 2.95866 11.6915 2.95866C11.3332 2.95866 11.0498 2.66699 11.0498 2.31699C11.0498 1.96699 11.3332 1.66699 11.6832 1.66699C15.3498 1.66699 18.3332 4.65033 18.3332 8.31699C18.3332 8.66699 18.0415 8.95866 17.6915 8.95866Z" fill="url(#paint3_radial_6409_7651)"/>
<path d="M9.20817 12.4587L7.6665 14.0003C7.3415 14.3253 6.82484 14.3253 6.4915 14.0087C6.39984 13.917 6.30817 13.8337 6.2165 13.742C5.35817 12.8753 4.58317 11.967 3.8915 11.017C3.20817 10.067 2.65817 9.11699 2.25817 8.17533C1.8665 7.22533 1.6665 6.31699 1.6665 5.45033C1.6665 4.88366 1.7665 4.34199 1.9665 3.84199C2.1665 3.33366 2.48317 2.86699 2.92484 2.45033C3.45817 1.92533 4.0415 1.66699 4.65817 1.66699C4.8915 1.66699 5.12484 1.71699 5.33317 1.81699C5.54984 1.91699 5.7415 2.06699 5.8915 2.28366L7.82484 5.00866C7.97484 5.21699 8.08317 5.40866 8.15817 5.59199C8.23317 5.76699 8.27484 5.94199 8.27484 6.10033C8.27484 6.30033 8.2165 6.50033 8.09984 6.69199C7.9915 6.88366 7.83317 7.08366 7.63317 7.28366L6.99984 7.94199C6.90817 8.03366 6.8665 8.14199 6.8665 8.27533C6.8665 8.34199 6.87484 8.40033 6.8915 8.46699C6.9165 8.53366 6.9415 8.58366 6.95817 8.63366C7.10817 8.90866 7.3665 9.26699 7.73317 9.70033C8.10817 10.1337 8.50817 10.5753 8.9415 11.017C9.02484 11.1003 9.1165 11.1837 9.19984 11.267C9.53317 11.592 9.5415 12.1253 9.20817 12.4587Z" fill="#6561FF"/>
<path d="M9.20817 12.4587L7.6665 14.0003C7.3415 14.3253 6.82484 14.3253 6.4915 14.0087C6.39984 13.917 6.30817 13.8337 6.2165 13.742C5.35817 12.8753 4.58317 11.967 3.8915 11.017C3.20817 10.067 2.65817 9.11699 2.25817 8.17533C1.8665 7.22533 1.6665 6.31699 1.6665 5.45033C1.6665 4.88366 1.7665 4.34199 1.9665 3.84199C2.1665 3.33366 2.48317 2.86699 2.92484 2.45033C3.45817 1.92533 4.0415 1.66699 4.65817 1.66699C4.8915 1.66699 5.12484 1.71699 5.33317 1.81699C5.54984 1.91699 5.7415 2.06699 5.8915 2.28366L7.82484 5.00866C7.97484 5.21699 8.08317 5.40866 8.15817 5.59199C8.23317 5.76699 8.27484 5.94199 8.27484 6.10033C8.27484 6.30033 8.2165 6.50033 8.09984 6.69199C7.9915 6.88366 7.83317 7.08366 7.63317 7.28366L6.99984 7.94199C6.90817 8.03366 6.8665 8.14199 6.8665 8.27533C6.8665 8.34199 6.87484 8.40033 6.8915 8.46699C6.9165 8.53366 6.9415 8.58366 6.95817 8.63366C7.10817 8.90866 7.3665 9.26699 7.73317 9.70033C8.10817 10.1337 8.50817 10.5753 8.9415 11.017C9.02484 11.1003 9.1165 11.1837 9.19984 11.267C9.53317 11.592 9.5415 12.1253 9.20817 12.4587Z" fill="url(#paint4_radial_6409_7651)"/>
<path d="M9.20817 12.4587L7.6665 14.0003C7.3415 14.3253 6.82484 14.3253 6.4915 14.0087C6.39984 13.917 6.30817 13.8337 6.2165 13.742C5.35817 12.8753 4.58317 11.967 3.8915 11.017C3.20817 10.067 2.65817 9.11699 2.25817 8.17533C1.8665 7.22533 1.6665 6.31699 1.6665 5.45033C1.6665 4.88366 1.7665 4.34199 1.9665 3.84199C2.1665 3.33366 2.48317 2.86699 2.92484 2.45033C3.45817 1.92533 4.0415 1.66699 4.65817 1.66699C4.8915 1.66699 5.12484 1.71699 5.33317 1.81699C5.54984 1.91699 5.7415 2.06699 5.8915 2.28366L7.82484 5.00866C7.97484 5.21699 8.08317 5.40866 8.15817 5.59199C8.23317 5.76699 8.27484 5.94199 8.27484 6.10033C8.27484 6.30033 8.2165 6.50033 8.09984 6.69199C7.9915 6.88366 7.83317 7.08366 7.63317 7.28366L6.99984 7.94199C6.90817 8.03366 6.8665 8.14199 6.8665 8.27533C6.8665 8.34199 6.87484 8.40033 6.8915 8.46699C6.9165 8.53366 6.9415 8.58366 6.95817 8.63366C7.10817 8.90866 7.3665 9.26699 7.73317 9.70033C8.10817 10.1337 8.50817 10.5753 8.9415 11.017C9.02484 11.1003 9.1165 11.1837 9.19984 11.267C9.53317 11.592 9.5415 12.1253 9.20817 12.4587Z" fill="url(#paint5_radial_6409_7651)"/>
<path d="M18.3082 15.2753C18.3082 15.5087 18.2665 15.7503 18.1832 15.9837C18.1582 16.0503 18.1332 16.117 18.0998 16.1837C17.9582 16.4837 17.7748 16.767 17.5332 17.0337C17.1248 17.4837 16.6748 17.8087 16.1665 18.017C16.1582 18.017 16.1498 18.0253 16.1415 18.0253C15.6498 18.2253 15.1165 18.3337 14.5415 18.3337C13.6915 18.3337 12.7832 18.1337 11.8248 17.7253C10.8665 17.317 9.90817 16.767 8.95817 16.0753C8.63317 15.8337 8.30817 15.592 7.99984 15.3337L10.7248 12.6087C10.9582 12.7837 11.1665 12.917 11.3415 13.0087C11.3832 13.0253 11.4332 13.0503 11.4915 13.0753C11.5582 13.1003 11.6248 13.1087 11.6998 13.1087C11.8415 13.1087 11.9498 13.0587 12.0415 12.967L12.6748 12.342C12.8832 12.1337 13.0832 11.9753 13.2748 11.8753C13.4665 11.7587 13.6582 11.7003 13.8665 11.7003C14.0248 11.7003 14.1915 11.7337 14.3748 11.8087C14.5582 11.8837 14.7498 11.992 14.9582 12.1337L17.7165 14.092C17.9332 14.242 18.0832 14.417 18.1748 14.6253C18.2582 14.8337 18.3082 15.042 18.3082 15.2753Z" fill="#6561FF"/>
<path d="M18.3082 15.2753C18.3082 15.5087 18.2665 15.7503 18.1832 15.9837C18.1582 16.0503 18.1332 16.117 18.0998 16.1837C17.9582 16.4837 17.7748 16.767 17.5332 17.0337C17.1248 17.4837 16.6748 17.8087 16.1665 18.017C16.1582 18.017 16.1498 18.0253 16.1415 18.0253C15.6498 18.2253 15.1165 18.3337 14.5415 18.3337C13.6915 18.3337 12.7832 18.1337 11.8248 17.7253C10.8665 17.317 9.90817 16.767 8.95817 16.0753C8.63317 15.8337 8.30817 15.592 7.99984 15.3337L10.7248 12.6087C10.9582 12.7837 11.1665 12.917 11.3415 13.0087C11.3832 13.0253 11.4332 13.0503 11.4915 13.0753C11.5582 13.1003 11.6248 13.1087 11.6998 13.1087C11.8415 13.1087 11.9498 13.0587 12.0415 12.967L12.6748 12.342C12.8832 12.1337 13.0832 11.9753 13.2748 11.8753C13.4665 11.7587 13.6582 11.7003 13.8665 11.7003C14.0248 11.7003 14.1915 11.7337 14.3748 11.8087C14.5582 11.8837 14.7498 11.992 14.9582 12.1337L17.7165 14.092C17.9332 14.242 18.0832 14.417 18.1748 14.6253C18.2582 14.8337 18.3082 15.042 18.3082 15.2753Z" fill="url(#paint6_radial_6409_7651)"/>
<path d="M18.3082 15.2753C18.3082 15.5087 18.2665 15.7503 18.1832 15.9837C18.1582 16.0503 18.1332 16.117 18.0998 16.1837C17.9582 16.4837 17.7748 16.767 17.5332 17.0337C17.1248 17.4837 16.6748 17.8087 16.1665 18.017C16.1582 18.017 16.1498 18.0253 16.1415 18.0253C15.6498 18.2253 15.1165 18.3337 14.5415 18.3337C13.6915 18.3337 12.7832 18.1337 11.8248 17.7253C10.8665 17.317 9.90817 16.767 8.95817 16.0753C8.63317 15.8337 8.30817 15.592 7.99984 15.3337L10.7248 12.6087C10.9582 12.7837 11.1665 12.917 11.3415 13.0087C11.3832 13.0253 11.4332 13.0503 11.4915 13.0753C11.5582 13.1003 11.6248 13.1087 11.6998 13.1087C11.8415 13.1087 11.9498 13.0587 12.0415 12.967L12.6748 12.342C12.8832 12.1337 13.0832 11.9753 13.2748 11.8753C13.4665 11.7587 13.6582 11.7003 13.8665 11.7003C14.0248 11.7003 14.1915 11.7337 14.3748 11.8087C14.5582 11.8837 14.7498 11.992 14.9582 12.1337L17.7165 14.092C17.9332 14.242 18.0832 14.417 18.1748 14.6253C18.2582 14.8337 18.3082 15.042 18.3082 15.2753Z" fill="url(#paint7_radial_6409_7651)"/>
<defs>
<radialGradient id="paint0_radial_6409_7651" cx="0" cy="0" r="1" gradientUnits="userSpaceOnUse" gradientTransform="translate(-2.36081 26.9131) rotate(-60.5009) scale(25.3152 14.8019)">
<stop stop-color="#090833"/>
<stop offset="1" stop-color="#2622C8" stop-opacity="0"/>
</radialGradient>
<radialGradient id="paint1_radial_6409_7651" cx="0" cy="0" r="1" gradientUnits="userSpaceOnUse" gradientTransform="translate(18.1593 4.87968) rotate(-161.521) scale(15.085 22.1846)">
<stop stop-color="#BA84FF"/>
<stop offset="1" stop-color="#2622C8" stop-opacity="0"/>
</radialGradient>
<radialGradient id="paint2_radial_6409_7651" cx="0" cy="0" r="1" gradientUnits="userSpaceOnUse" gradientTransform="translate(-2.36081 26.9131) rotate(-60.5009) scale(25.3152 14.8019)">
<stop stop-color="#090833"/>
<stop offset="1" stop-color="#2622C8" stop-opacity="0"/>
</radialGradient>
<radialGradient id="paint3_radial_6409_7651" cx="0" cy="0" r="1" gradientUnits="userSpaceOnUse" gradientTransform="translate(18.1593 4.87968) rotate(-161.521) scale(15.085 22.1846)">
<stop stop-color="#BA84FF"/>
<stop offset="1" stop-color="#2622C8" stop-opacity="0"/>
</radialGradient>
<radialGradient id="paint4_radial_6409_7651" cx="0" cy="0" r="1" gradientUnits="userSpaceOnUse" gradientTransform="translate(-2.36081 26.9131) rotate(-60.5009) scale(25.3152 14.8019)">
<stop stop-color="#090833"/>
<stop offset="1" stop-color="#2622C8" stop-opacity="0"/>
</radialGradient>
<radialGradient id="paint5_radial_6409_7651" cx="0" cy="0" r="1" gradientUnits="userSpaceOnUse" gradientTransform="translate(18.1593 4.87968) rotate(-161.521) scale(15.085 22.1846)">
<stop stop-color="#BA84FF"/>
<stop offset="1" stop-color="#2622C8" stop-opacity="0"/>
</radialGradient>
<radialGradient id="paint6_radial_6409_7651" cx="0" cy="0" r="1" gradientUnits="userSpaceOnUse" gradientTransform="translate(-2.36081 26.9131) rotate(-60.5009) scale(25.3152 14.8019)">
<stop stop-color="#090833"/>
<stop offset="1" stop-color="#2622C8" stop-opacity="0"/>
</radialGradient>
<radialGradient id="paint7_radial_6409_7651" cx="0" cy="0" r="1" gradientUnits="userSpaceOnUse" gradientTransform="translate(18.1593 4.87968) rotate(-161.521) scale(15.085 22.1846)">
<stop stop-color="#BA84FF"/>
<stop offset="1" stop-color="#2622C8" stop-opacity="0"/>
</radialGradient>
</defs>
</svg>
