<svg width="24" height="24" viewBox="0 0 24 24" fill="none" xmlns="http://www.w3.org/2000/svg">
<path d="M16.7999 2H14.1999C10.9999 2 8.99994 4 8.99994 7.2V11.25H15.2499C15.6599 11.25 15.9999 11.59 15.9999 12C15.9999 12.41 15.6599 12.75 15.2499 12.75H8.99994V16.8C8.99994 20 10.9999 22 14.1999 22H16.7899C19.9899 22 21.9899 20 21.9899 16.8V7.2C21.9999 4 19.9999 2 16.7999 2Z" fill="#42307D" fill-opacity="0.6"/>
<path d="M4.55994 11.25L6.62994 9.18C6.77994 9.03 6.84994 8.84 6.84994 8.65C6.84994 8.46 6.77994 8.26 6.62994 8.12C6.33994 7.83 5.85994 7.83 5.56994 8.12L2.21994 11.47C1.92994 11.76 1.92994 12.24 2.21994 12.53L5.56994 15.88C5.85994 16.17 6.33994 16.17 6.62994 15.88C6.91994 15.59 6.91994 15.11 6.62994 14.82L4.55994 12.75H8.99994V11.25H4.55994Z" fill="#42307D" fill-opacity="0.6"/>
</svg>
