<svg width="21" height="20" viewBox="0 0 21 20" fill="none" xmlns="http://www.w3.org/2000/svg">
<g clip-path="url(#clip0_6490_226)">
<path d="M7.0418 18.1246C14.5871 18.1246 18.7152 11.8719 18.7152 6.45118C18.7152 6.2754 18.7113 6.09572 18.7035 5.91993C19.5066 5.33918 20.1996 4.61985 20.75 3.79572C20.0021 4.12847 19.208 4.34579 18.3949 4.44025C19.2511 3.92706 19.8921 3.12086 20.1992 2.17111C19.3938 2.64843 18.513 2.98514 17.5945 3.16681C16.9757 2.50927 16.1575 2.0739 15.2664 1.92801C14.3753 1.78212 13.461 1.93384 12.6648 2.35971C11.8686 2.78559 11.2348 3.46189 10.8615 4.28406C10.4882 5.10623 10.3962 6.02848 10.5996 6.90822C8.96874 6.82638 7.37328 6.40272 5.91665 5.66472C4.46002 4.92671 3.17474 3.89083 2.14414 2.62423C1.62033 3.52734 1.46005 4.596 1.69586 5.61304C1.93167 6.63008 2.54589 7.51917 3.41367 8.09962C2.76219 8.07894 2.12498 7.90353 1.55469 7.5879V7.63868C1.5541 8.58643 1.88175 9.50512 2.48192 10.2386C3.0821 10.9721 3.91777 11.4751 4.84687 11.6621C4.24338 11.8272 3.60999 11.8513 2.9957 11.7324C3.25788 12.5475 3.76798 13.2604 4.45481 13.7716C5.14164 14.2828 5.97093 14.5668 6.82695 14.584C5.37369 15.7256 3.57848 16.3447 1.73047 16.3418C1.40274 16.3413 1.07533 16.3212 0.75 16.2817C2.62738 17.4861 4.81128 18.1258 7.0418 18.1246Z" fill="#98A2B3"/>
</g>
<defs>
<clipPath id="clip0_6490_226">
<rect width="20" height="20" fill="white" transform="translate(0.75)"/>
</clipPath>
</defs>
</svg>
